# xmcd CD database file
#
# Track frame offsets:
#	150
#	2861
#	11234
#	14160
#	20862
#	27531
#	32554
#	45025
#	51314
#	58357
#	79763
#	94446
#	104923
#	133087
#	145125
#	157574
#	170155
#	183424
#	193529
#	196961
#	201467
#	208549
#	212003
#	218703
#	227161
#	237658
#	242245
#	246233
#	258675
#	263965
#	266078
#	267536
#	270268
#	277655
#	279226
#	285373
#	289812
#	295228
#	302658
#	313522
#	325590
#	341842
#
# Disc length: 4709 seconds
#
# Revision: 0
# Processed by: cddbd v1.5.1PL0 Copyright (c) Steve Scherf et al.
# Submitted via: CDex 1.51
#
DISCID=9212632a
DTITLE=Eric Adams - Vinylvulture
DYEAR=2005
DGENRE=Jazz
TTITLE0=Selling And Carpets
TTITLE1=Barry Grey Orchestra - Hijacked
TTITLE2=Gary Miller - Stingray
TTITLE3=Bloodrock - Wicked Truth
TTITLE4=Booker T - Hip Hug Her
TTITLE5=Ice Cube - Giving Up The Nappy Dug Out
TTITLE6=The Gunter Kallmann Choir - Daydream
TTITLE7=Coloseum - The Kettle
TTITLE8=Funkadelic - Super Stupid
TTITLE9=Buddy Miles - Them Changes
TTITLE10=JBs - Same Beat
TTITLE11=Beatles - I Want You
TTITLE12=Mandrill - Movement IV
TTITLE13=Simon Dupree and the Big Sound - Like The Sun Like The Fire
TTITLE14=Music Machine - Come On In
TTITLE15=Donovan - Get Thy Bearings
TTITLE16=Jefferson Airplane - Today
TTITLE17=The Cyrcle - The Visit
TTITLE18=Eleventh Hour - Hollywood Hot
TTITLE19=Eleventh Hour - Hollywood Rotter
TTITLE20=Cozy Powel - And Then There Was Skin
TTITLE21=Mr C - Hot Butter
TTITLE22=Supremes - These Boots Are Made For Walking
TTITLE23=Nu People - I'd Be Nowehere Today
TTITLE24=Mandrill - Two Sisters Of Mystery
TTITLE25=Shirley Bassey - Spinning Wheel
TTITLE26=Average White Band - Jugglers
TTITLE27=Peggy Lee - Sitting On The Dock Of The Bay
TTITLE28=The Invitations - Written On The Wall
TTITLE29=Bob James - Shamboozie
TTITLE30=Buddy Baker - Sign Song
TTITLE31=Julio Gutierrez - Se Acabo
TTITLE32=Rainbow - Hands
TTITLE33=Joe Simon - Drowning In A Sea Of Love
TTITLE34=James Brown - Honky Tonk
TTITLE35=Jimi Hendrix - Rainy Day Dream Away
TTITLE36=James Brown - Doin It To Death
TTITLE37=Fred Wesley and the JBs - If You Don't Get It The First Time, Back Up And Try It Again
TTITLE38=Ann Peebles - Run, Run, Run
TTITLE39=Syl Johnson - I Hear The Love Chimes
TTITLE40=Hodges, James, Smith and Crawford - Nobody
TTITLE41=Deanna Durbin - Turntable Song
EXTD=YEAR: 2005
EXTT0=
EXTT1=
EXTT2=
EXTT3=
EXTT4=
EXTT5=
EXTT6=
EXTT7=
EXTT8=
EXTT9=
EXTT10=
EXTT11=
EXTT12=
EXTT13=
EXTT14=
EXTT15=
EXTT16=
EXTT17=
EXTT18=
EXTT19=
EXTT20=
EXTT21=
EXTT22=
EXTT23=
EXTT24=
EXTT25=
EXTT26=
EXTT27=
EXTT28=
EXTT29=
EXTT30=
EXTT31=
EXTT32=
EXTT33=
EXTT34=
EXTT35=
EXTT36=
EXTT37=
EXTT38=
EXTT39=
EXTT40=
EXTT41=
PLAYORDER=
